<?xml version="1.0" encoding="utf-8"?>
<!-- Generator: Adobe Illustrator 23.0.4, SVG Export Plug-In . SVG Version: 6.00 Build 0)  -->
<svg version="1.1" id="Layer_1" xmlns="http://www.w3.org/2000/svg" xmlns:xlink="http://www.w3.org/1999/xlink" x="0px" y="0px"
	 viewBox="0 0 1788.5 569.3" style="enable-background:new 0 0 1788.5 569.3;" xml:space="preserve">
<style type="text/css">
	.st0{fill:#539CD5;}
	.st1{fill:#1B3B3F;}
</style>
<g>
	<g>
		<path class="st0" d="M919.6,134.4"/>
		<g>
			<g id="XMLID_196_">
				<defs>
					<path id="XMLID_197_" d="M330.1,486.6h-79.5c-0.1,0-0.2-0.1-0.2-0.2V111.8c0-0.1,0.1-0.2,0.2-0.2h79.5c0.1,0,0.2,0.1,0.2,0.2
						v374.5C330.4,486.5,330.3,486.6,330.1,486.6z"/>
				</defs>
				<clipPath id="XMLID_2_">
					<use xlink:href="#XMLID_197_"  style="overflow:visible;"/>
				</clipPath>
				<g style="clip-path:url(#XMLID_2_);">
					
						<image style="overflow:visible;" width="578" height="210" id="XMLID_198_" xlink:href="DA2282FDFFA37483.png"  transform="matrix(2.7108 0 0 2.7108 -40.2518 0)">
					</image>
				</g>
			</g>
			<g id="XMLID_193_">
				<defs>
					<path id="XMLID_194_" d="M229.4,213.5c-39.1,29.9-78.4,60.4-117.8,91.5c-15.4,12.1-30.7,24.3-45.9,36.4
						c-14.5,14.7-19.6,27.6-21.5,33.9c-1.1,3.5-1.8,7-2,7.5c-0.4,1.8-3.1,15.1-1.4,28.4c2.5,19.1,13.5,33,18.4,39
						c15.9,19.6,35.2,27.1,42.4,29.8c22.6,8.4,41.9,6.6,48.2,5.9c26.2-3.3,43.5-16,47.9-19.4c7.2-5.6,21.3-16.8,28.3-36.9
						c3.8-10.8,4-20,4.1-24.1c1-89.4,1.4-189.5,1.4-189.5c0-0.8,0-1.6,0-2.4"/>
				</defs>
				<clipPath id="XMLID_3_">
					<use xlink:href="#XMLID_194_"  style="overflow:visible;"/>
				</clipPath>
				<g style="clip-path:url(#XMLID_3_);">
					
						<image style="overflow:visible;" width="578" height="210" id="XMLID_195_" xlink:href="DA2282FDFFA37481.png"  transform="matrix(2.7108 0 0 2.7108 -40.2518 0)">
					</image>
				</g>
			</g>
		</g>
	</g>
	<g>
		<g>
			<g>
				<g>
					<path id="XMLID_233_" class="st1" d="M514.1,159.3c-5-12.1-12.8-22.3-23-30.4c-5.1-4-10.4-7-15.7-9c-5.4-2-11-3.5-16.7-4.3
						c-5.8-0.8-11.8-1.3-17.8-1.3h-18.7l-44.6,0c0.5,0.7,1.4,1.6,2.2,2.1c3.3,2.3,5.8,6.2,6.3,9.1c0.3,2.1,0.8,5.4,0.9,9.1
						c0.2,3.6,0.3,7.4,0.3,11.4c0.1,4,0.1,7.9,0.1,11.7v89.1c0,3.5,0,6.9,0.1,10.2c0.1,3.6-0.2,7.1-0.7,10.5
						c-0.6,3.5-1.9,6.8-5.8,10.3c-1.2,1-2.5,1.9-3.9,2.9h43.1l4.9-0.1c6.6,0,13,0,19.2-0.1c6.1-0.1,12.1-0.7,17.8-1.7
						c5.7-1,11.4-2.7,16.8-5.1c5.4-2.3,10.7-5.8,15.8-10.3c8.7-7.7,15.4-17.5,19.9-29.1c4.5-11.7,6.8-23.9,6.8-36.1
						C521.7,184.6,519.2,171.5,514.1,159.3z M482,220.1c-1.2,7-3.5,13.8-6.7,20.1c-2.4,4.6-5.5,8.9-9.4,12.3
						c-4.2,3.7-9.4,5.8-14.9,6.9c-7.4,1.4-15.1,1.9-22.6,0.9c-2.2-0.3-5-0.8-7.3-1.7l-1.6-0.6v-1.9l0.2-117.8v-2.2
						c0-0.4,7.5-1.2,8.3-1.3c11.3-1,23.6,1,33.2,7.1c6.2,3.9,11,9.7,14.3,16.2c3,5.9,5.2,12.6,6.4,19.8c1.2,7.1,1.8,14.2,1.8,21.1
						C483.8,206.1,483.2,213.2,482,220.1z"/>
					<path id="XMLID_230_" class="st1" d="M648.1,280.8H710c-1.8-1.8-3.4-3.6-4.7-5.1c-2.4-2.8-4.4-5.6-5.9-8.4
						c-1.6-2.8-3-5.8-4.1-8.9l-1.9-5.1l-2.2-5.8l-48.9-133.2h-55.9c0.9,0.9,1.7,1.7,2.4,2.7c2.4,2.9,3.6,6.5,3.6,10.6
						c0,3.1-0.8,6.9-2.4,11.5c-1.5,4.3-2.7,7.7-3.5,10.3l-36.2,104.6c-2.5,6.7-4.9,12.4-7.2,17c-1.7,3.3-4.2,6.6-7.2,9.8h43.4
						c-0.5-0.6-1-1.4-1.7-1.8c-6.9-3.9-8-8.3-8-12.6c0-3.1,11.6-39.6,11.6-39.6l67.5-0.4c0,0,9.9,30.2,10.2,31.4
						c0.3,1.4,1,3.2,1,5.7c0,4.9-3.1,9.2-5.7,12C653.3,276.4,649.2,279.7,648.1,280.8z M588.4,205.5l24.2-68.2l28.3,68.2H588.4z"/>
					<path id="XMLID_229_" class="st1" d="M864.6,280.9h50.1c-1.2-1.6-2.3-3.2-3.2-4.9c-1.6-3.1-2.9-6.6-3.9-10.2
						c-1-3.9-1.7-7.4-2.2-10.8c-0.5-3.6-0.9-7.3-1.2-11l-11.5-113.5c-0.4-2.5-0.4-4.8,0-6.8c0.4-2,1.1-3.8,2.1-5.4
						c0.7-1.3,1.8-2.6,3.1-4h-48.6l-32.7,99.2L781,114.2h-49.1c1.7,2.3,3.2,4.7,4.3,7.3c1.9,4.4,2.6,9.4,2.1,14.9l-11.8,110.2
						c-0.3,3.5-0.7,7-1.1,10.4c-0.4,3.6-1.1,7-1.9,10.2c-0.9,3.4-2.2,6.6-3.8,9.6c-0.8,1.4-1.7,2.7-2.7,4h35.5
						c-1.3-1.4-2.4-2.9-3.3-4.5c-2.2-3.9-3.2-8.5-2.8-13.7l8.3-90.5l1.2-19.1l29.5,86.7c2.2,6.6,4.6,12.6,6.9,18
						c2.2,5,5.9,9.5,11.2,13.2c3.5,2.4,8.9,5.3,12.7,7.5c2.9,1.7,43.1-125.4,43.1-125.4l12.1,109.5c0.4,4-2,9.8-3.9,13.6
						C866.5,277.8,865.6,279.4,864.6,280.9z"/>
					<path id="XMLID_228_" class="st1" d="M1007.1,259.1c-6.2,1.1-34.9,0.9-39.4-1.1l-1.6-0.7v-1.7l0.1-105.8c0-3.4,0-6.9-0.1-10.4
						c-0.1-3.7,0.2-7.3,0.9-10.7c0.6-3.4,1.7-6.8,3.6-9.8c1-1.6,2.9-3.6,4.6-4.8l-51.7,0.1c2.8,1.5,5.1,2.8,6.2,4
						c3.2,3.6,4,5.3,4.4,9.7c0.3,3.5,0.8,125,0.8,128.4c0.1,3.6-0.3,7.1-0.8,10.5c-0.6,4.2-1.3,6.7-3.7,9.1c-1,1-4.2,3.2-6.9,4.8
						h93.4l11.1-33.1C1020.9,253.1,1016.4,257.5,1007.1,259.1z"/>
					<path id="XMLID_225_" class="st1" d="M1144.5,280.8h61.9c-1.8-1.8-3.4-3.6-4.7-5.1c-2.4-2.8-4.4-5.6-5.9-8.4
						c-1.6-2.8-3-5.8-4.1-8.9l-1.9-5.1l-2.2-5.8l-48.9-133.2h-55.9c0.9,0.9,1.7,1.7,2.4,2.7c2.4,2.9,3.6,6.5,3.6,10.6
						c0,3.1-0.8,6.9-2.4,11.5c-1.5,4.3-2.7,7.7-3.5,10.3l-36.2,104.6c-2.5,6.7-4.9,12.4-7.2,17c-1.7,3.3-4.2,6.6-7.2,9.8h43.4
						c-0.5-0.6-1-1.4-1.7-1.8c-6.9-3.9-8-8.3-8-12.6c0-3.1,11.6-39.6,11.6-39.6l67.5-0.4c0,0,9.9,30.2,10.2,31.4
						c0.3,1.4,1,3.2,1,5.7c0,4.9-3.1,9.2-5.7,12C1149.7,276.4,1145.7,279.7,1144.5,280.8z M1084.9,205.5l24.2-68.2l28.3,68.2H1084.9
						z"/>
				</g>
			</g>
			<g>
				<path id="XMLID_220_" class="st1" d="M1746.3,325.9c-1.2-2.9-2.9-5.4-5.1-7.5c-2.1-2.1-4.6-3.8-7.5-5c-2.8-1.2-5.9-1.8-9.1-1.8
					c-3.3,0-6.3,0.7-9.2,1.9c-2.9,1.2-5.3,2.9-7.5,5.1c-2.1,2.1-3.8,4.6-5,7.5c-1.2,2.9-1.8,6-1.8,9.3c0,3.3,0.7,6.4,1.9,9.3
					c1.2,2.9,2.9,5.4,5.1,7.6c2.1,2.2,4.6,3.9,7.5,5.1c2.8,1.2,5.9,1.9,9.2,1.8c3.2,0,6.3-0.7,9.2-1.9c2.9-1.3,5.4-3,7.5-5.2
					c2.1-2.2,3.8-4.7,5-7.6c1.2-2.9,1.8-6,1.8-9.3C1748.2,331.9,1747.6,328.8,1746.3,325.9z M1724.7,355.9c-2.6,0-5.1-0.5-7.4-1.5
					l0.3,0l-0.1-14.4l6.9-0.1l8.5,14.2c-0.1,0-0.1,0.1-0.2,0.1C1730.3,355.3,1727.6,355.9,1724.7,355.9z M1717.5,336.5l-0.1-10.7
					l8.7-0.1c0.9,0,1.8,0,2.7,0.1c0.9,0.1,1.8,0.3,2.6,0.6c0.8,0.3,1.4,0.8,1.9,1.5c0.5,0.7,0.8,1.6,0.8,2.7c0,1.3-0.2,2.3-0.8,3.1
					c-0.5,0.7-1.2,1.3-2,1.7c-0.8,0.4-1.7,0.7-2.7,0.8c-1,0.1-2,0.2-3,0.2L1717.5,336.5z M1743.6,343.2c-1,2.5-2.5,4.7-4.3,6.6
					c-0.8,0.8-1.8,1.2-2.7,1.8l-7.5-11.7c2.8-0.1,5.1-0.9,6.9-2.3c1.8-1.4,2.7-3.6,2.6-6.6c0-1.8-0.3-3.3-1-4.4
					c-0.6-1.1-1.5-2-2.5-2.6c-1-0.6-2.3-1-3.6-1.3c-1.4-0.2-2.8-0.3-4.3-0.3l-14.2,0.1l0.2,29.3c-0.9-0.7-2-1.1-2.8-1.9
					c-1.8-1.9-3.3-4.1-4.3-6.6c-1.1-2.5-1.6-5.2-1.6-8c0-2.8,0.5-5.4,1.5-7.9c1-2.5,2.5-4.6,4.3-6.5c1.8-1.9,4-3.3,6.4-4.4
					c2.4-1.1,5-1.7,7.8-1.7c2.8,0,5.5,0.5,7.9,1.5c2.5,1,4.7,2.5,6.5,4.3c1.9,1.8,3.4,4,4.5,6.5c1.1,2.5,1.7,5.1,1.7,7.9
					C1745.2,337.9,1744.6,340.6,1743.6,343.2z"/>
				<g>
					<path class="st1" d="M1487.9,323.3c4.1,2.8,6.9,5.9,8.3,9.2c1.5,3.5,2.2,9.2,2.2,17v86L1419,327.4c-2.6-3.6-4.3-6.4-5.1-8.3
						l-0.9-2.2h-46.5h-1h-68.3l11.4,6.6c3.5,2,5.7,4.6,6.7,7.8c0.8,2.5,1.8,8.2,1.8,20.9v99.5c0,6.9-0.3,12.3-0.8,16
						c-0.5,3.4-1.3,6-2.5,7.9c-1.2,1.8-3,3.4-5.2,4.8l-10.8,6.6h68.1h0.8h63.1l-9.7-6.5c-2.8-1.9-5-3.9-6.5-6
						c-1.5-2-2.5-4.6-3.1-7.7c-0.7-3.3-1-7.5-1-12.5v-88.2l74.8,101.3c3.9,5.3,7.4,9.6,10.5,12.8c3.2,3.3,6.6,6.2,10.2,8.5
						c3.6,2.3,7.9,4.4,12.8,6.2l4.7,1.7v-147c0-7.5,0.7-13.2,2.2-16.8c1.4-3.4,4.2-6.5,8.4-9.4l9.6-6.5h-64.3L1487.9,323.3z
						 M1366.2,486.7l-10.3-6.3c-2.5-1.5-4.4-3.2-5.5-4.9c-1.1-1.7-1.9-4.3-2.4-7.6c-0.5-3.8-0.8-9.2-0.8-16.2v-99.5
						c0-7,0.3-12.4,0.8-16.2c0.4-3.4,1.2-6,2.4-7.6c1.1-1.7,3-3.3,5.5-4.9l10.1-6.2l8.8,6.1c4.1,2.9,6.9,6.1,8.4,9.5
						c1.5,3.6,2.3,9.3,2.3,16.7v104.8c0,7.4-0.8,13-2.2,16.6c-1.4,3.4-4.3,6.6-8.5,9.6L1366.2,486.7z"/>
					<path class="st1" d="M1700.7,478.8c-0.6-1.9-0.9-4.4-0.9-7.6v-56.5c0-6.1,0.3-10.7,1-13.6l1-4.4h-51.5l10.7,6.6
						c2.5,1.6,4.4,3.2,5.5,4.9c1.1,1.7,1.9,4.3,2.4,7.6c0.5,3.8,0.8,9.2,0.8,16.2v30.2c-3.2,1-7,1.9-11.5,2.6
						c-5.7,0.8-11.2,1.3-16.5,1.3c-11.5,0-22.3-3-32.2-8.9c-9.9-5.9-17.8-14-23.5-24.2c-5.7-10.2-8.6-21.4-8.6-33.5
						c0-9.1,1.5-17.5,4.5-25.1c3-7.5,7.2-14.2,12.6-19.6c5.4-5.5,11.9-9.8,19.3-12.9c7.4-3.1,15.6-4.6,24.4-4.6
						c5.6,0,10.9,0.5,15.8,1.6c4.8,1,9.2,2.6,13.1,4.7c3.9,2.1,7.4,4.7,10.5,7.8l6,6v-39.8l-2.8-0.6c-8-1.8-14.7-3-20-3.6
						c-5.3-0.6-11.6-0.9-18.7-0.9c-13.8,0-26.8,2.2-38.7,6.5c-12,4.4-22.6,10.7-31.4,18.8c-8.8,8.1-15.8,17.8-20.6,28.8
						c-4.8,11-7.3,23.1-7.3,35.9c0,14.2,3,27.5,9,39.6c6,12.1,14.7,22.4,25.8,30.7c8.8,6.3,18.4,11,28.6,13.8
						c10.1,2.8,22.2,4.2,35.9,4.2c6.7,0,13.7-0.5,20.8-1.4c7.1-0.9,15.9-2.5,26.2-4.8l0.3-0.1c1.1-0.3,2.1-0.6,2.9-0.7
						c1.1-0.2,1.9-0.3,2.5-0.5c0.2-0.1,0.7-0.1,1.6-0.2l4.5-0.4L1700.7,478.8z"/>
				</g>
				<path class="st1" d="M491.8,344.4L491.8,344.4c-2.8-5.9-6.7-11-11.9-15.2c-5.1-4.1-11.2-7.3-18.2-9.4
					c-6.9-2.1-14.7-3.2-23.1-3.2h-12.1l-4.7,0.2h-51.7l11.4,6.6c3.5,2,5.7,4.6,6.7,7.8c0.8,2.5,1.8,8.2,1.8,20.9v99.5
					c0,6.9-0.3,12.3-0.8,16c-0.5,3.4-1.3,6-2.5,7.9c-1.2,1.8-3,3.4-5.2,4.8l-10.8,6.6h69.8l-9.7-6.5c-2.8-1.9-5-3.9-6.5-6
					c-1.4-2-2.5-4.5-3.1-7.3c-0.7-3.1-1-7.4-1-12.9V409l2.8,1.2c2.1,0.8,4,1.5,5.9,2c1.9,0.5,3.8,0.9,5.8,1.1
					c1.9,0.2,4.1,0.3,6.6,0.3c9.5,0,18.6-2.3,27-6.7c8.4-4.5,15.2-10.7,20.1-18.4c4.9-7.7,7.4-16.2,7.4-25
					C495.9,356.7,494.6,350.3,491.8,344.4z M420.3,403.9v-61.6c4.3-0.9,8.6-1.3,12.7-1.3c9.5,0,17,2.4,22.3,7.2
					c5.2,4.8,7.8,11.2,7.8,19.8c0,9.6-3.2,17.3-9.8,23.4c-6.7,6.2-16.6,10.3-29.3,12L420.3,403.9z"/>
				<path class="st1" d="M649.1,475.6c-1.2-1.8-2-4.4-2.5-7.8c-0.5-3.8-0.8-9.2-0.8-16.2v-99.5c0-7,0.3-12.4,0.8-16.2
					c0.5-3.4,1.3-6,2.5-7.8c1.1-1.8,2.9-3.4,5.3-4.7l11.2-6.6h-69.2l10.7,6.6c2.5,1.6,4.4,3.2,5.5,4.9c1.1,1.7,1.9,4.3,2.4,7.6
					c0.5,3.8,0.8,9.2,0.8,16.2v80.4c0,4.7-0.3,8.3-0.9,10.8c-0.6,2.4-1.7,4.7-3.2,7.1c-3.3,4.9-7.6,8.7-13,11.4
					c-5.4,2.7-11.5,4.1-18.2,4.1c-11,0-19.5-4-26-12.2c-2-2.5-3.5-5.1-4.6-7.5c-1.1-2.4-1.8-5.4-2.3-8.8c-0.5-3.6-0.7-8.1-0.7-13.4
					v-71.8c0-7,0.3-12.4,0.8-16.2c0.5-3.4,1.3-6,2.4-7.8c1.1-1.7,2.9-3.3,5.4-4.8l11.2-6.6h-69.5l10.9,6.6c2.4,1.5,4.2,3.1,5.4,4.9
					c1.2,1.8,2,4.4,2.5,7.8c0.5,3.8,0.8,9.1,0.8,16V424c0,7.1,0.2,12.8,0.5,17.1c0.4,4.4,0.9,8.1,1.7,11.1c0.8,3.1,2,6.4,3.6,9.7
					c2.9,6.1,6.9,11.4,12,15.8c5.1,4.4,11,7.8,17.7,10c6.6,2.3,13.9,3.4,21.5,3.4c10,0,19.4-2,28-5.8c5.4-2.4,10-5.4,13.9-9v10.6
					h49.9l-11.2-6.6C652,479,650.2,477.4,649.1,475.6z"/>
				<g>
					<path class="st1" d="M766.1,387.6c5.3-3.4,9.3-6.9,12.1-10.7c4-5.4,6-12.3,6-20.4c0-3.9-0.6-7.7-1.8-11.3
						c-1.2-3.6-3-7.1-5.3-10.4c-2.3-3.2-5-6.1-8.1-8.5c-5-3.6-10.4-6.1-16.2-7.6c-5.6-1.4-13.2-2.1-22.4-2.1l-8,0
						c-4,0.2-8,0.2-11.9,0.2H664l11.4,6.6c3.5,2,5.7,4.6,6.7,7.8c0.8,2.5,1.8,8.2,1.8,20.9v99.5c0,6.9-0.3,12.3-0.8,16
						c-0.5,3.4-1.3,6-2.5,7.9c-1.2,1.8-3,3.4-5.2,4.8l-10.8,6.6h58.1c9.2,0,16.4-0.3,21.6-0.9c5.3-0.6,10.3-1.6,15-3
						c5.7-1.8,11.1-4.5,16.1-7.9c4.9-3.4,9.2-7.4,12.6-11.8c3.5-4.4,6.2-9.3,8.1-14.6c1.9-5.3,2.9-10.9,2.9-16.7
						C798.8,410.7,787.8,395.8,766.1,387.6z M714.1,340.6c5.5-0.7,9.5-1,12-1c8,0,14.5,2,19.2,5.8c4.5,3.7,6.8,8.7,6.8,15.1
						c0,6.7-2.8,11.9-8.5,16c-6.1,4.2-14.3,6.4-24.5,6.4c-1.7,0-3.4,0-4.8-0.1V340.6z M764.5,442.8c-0.6,2.5-1.6,4.8-2.9,6.9
						c-2.3,3.6-5.5,6.4-9.6,8.5c-0.6,0.3-1.1,0.6-1.8,0.9c-1.3,0.6-2.7,1.1-4.2,1.5c-4.4,1.3-9.3,1.9-14.8,1.9
						c-2.9,0-5.3-0.1-7.4-0.2c-0.7,0-1.3-0.1-1.9-0.2c-1.9-0.2-4.6-0.6-7.9-1.3v-55.1c4.5-0.5,8.9-0.8,13.3-0.8
						c12.7,0,22.3,2.6,28.8,7.8c0.8,0.6,1.5,1.3,2.2,2c1.4,1.4,2.5,2.9,3.5,4.6c1,1.7,1.7,3.5,2.3,5.4c0.9,2.9,1.3,6.2,1.3,9.9
						C765.5,437.6,765.2,440.3,764.5,442.8z"/>
					<path class="st1" d="M758.4,414.8c1.4,1.4,2.5,2.9,3.5,4.6C760.9,417.7,759.7,416.2,758.4,414.8z"/>
					<path class="st1" d="M765.5,434.7c0,2.9-0.3,5.6-1,8.1C765.2,440.3,765.5,437.6,765.5,434.7z"/>
					<path class="st1" d="M761.9,419.4c1,1.7,1.7,3.5,2.3,5.4C763.6,422.9,762.8,421.1,761.9,419.4z"/>
					<path class="st1" d="M746.1,460.6c1.5-0.4,2.8-0.9,4.2-1.5c0.6-0.3,1.2-0.6,1.8-0.9c-0.6,0.3-1.1,0.6-1.8,0.9
						C748.9,459.7,747.5,460.2,746.1,460.6z"/>
					<path class="st1" d="M723.9,462.3c2.1,0.1,4.5,0.2,7.4,0.2c5.5,0,10.4-0.6,14.8-1.9c-4.4,1.3-9.3,1.9-14.8,1.9
						C728.4,462.6,726,462.5,723.9,462.3z"/>
					<path class="st1" d="M752,458.2c4.2-2.1,7.4-4.9,9.6-8.5C759.4,453.3,756.2,456.1,752,458.2z"/>
				</g>
				<g>
					<path class="st1" d="M922.5,447.9c-7.2,5.5-13.8,9.3-19.6,11.4c-5.8,2-12.8,3.1-20.8,3.1c-7.5,0-16.6-0.7-27.1-2.1V352.1
						c0-7,0.3-12.4,0.8-16.2c0.4-3.4,1.2-6,2.4-7.6c1.1-1.7,3-3.3,5.5-4.9l10.7-6.6h-69.3l11.4,6.6c3.5,2,5.7,4.6,6.7,7.8
						c0.8,2.5,1.8,8.2,1.8,20.9v99.5c0,6.9-0.3,12.3-0.8,16c-0.5,3.4-1.3,6-2.5,7.9c-1.2,1.8-3,3.4-5.2,4.8l-10.8,6.6h109.5
						l17.3-46.5L922.5,447.9z"/>
					<path class="st1" d="M979.8,475.5c-1.1-1.7-1.9-4.3-2.4-7.6c-0.5-3.8-0.8-9.2-0.8-16.2v-99.5c0-7,0.3-12.4,0.8-16.2
						c0.4-3.4,1.2-6,2.4-7.6c1.1-1.7,3-3.3,5.5-4.9l10.7-6.6h-69.3l11.4,6.6c3.5,2,5.7,4.6,6.7,7.8c0.8,2.5,1.8,8.2,1.8,20.9v99.5
						c0,6.9-0.3,12.3-0.8,16c-0.5,3.4-1.3,6-2.5,7.9c-1.2,1.8-3,3.4-5.2,4.8l-10.8,6.6H996l-10.7-6.6
						C982.8,478.8,981,477.2,979.8,475.5z"/>
					<path class="st1" d="M1104.4,405.9c-6-5.2-17.2-11.8-34.3-20.3c-7.1-3.5-12.9-6.6-17.2-9.1c-4.1-2.4-7.4-4.7-9.6-6.9
						c-2-2-3.5-3.9-4.3-5.9c-0.8-2-1.2-4.3-1.2-6.9c0-5.8,2.3-10.4,7-13.9c5-3.8,11.7-5.7,20-5.7c6.2,0,12.4,1.3,18.2,4
						c5.9,2.7,11.1,6.4,15.6,11.2l6.1,6.5v-39.7l-2.5-0.8c-6.5-2-12.7-3.5-18.6-4.4c-5.9-0.9-12.2-1.4-18.6-1.4
						c-11.6,0-22,1.9-31,5.8c-9.2,3.9-16.4,9.4-21.4,16.5c-5.1,7.1-7.7,15.4-7.7,24.6c0,12.7,4.3,23.4,13,31.8
						c3.6,3.3,7.7,6.5,12.4,9.4c4.6,2.8,11.5,6.5,20.5,10.8c15,7.4,24.7,13.1,28.7,16.9c2,1.8,3.7,4.1,4.8,6.7
						c1.2,2.7,1.8,5.6,1.8,8.6c0,3.8-1.2,7.2-3.8,10.4c-2.7,3.3-6.4,6-11.2,8c-4.9,2-10.3,3.1-16.1,3.1c-5.9,0-11.7-0.7-17.2-2.1
						c-5.5-1.4-11-3.5-16.2-6.3c-5.3-2.8-10.4-6.3-15.1-10.5l-8.1-7.1l9.5,43.5l1.8,0.7c14.2,5.2,28.5,7.9,42.4,7.9
						c9,0,17.6-1.4,25.7-4.1c8.1-2.8,15.3-6.6,21.3-11.5c6.1-5,10.8-10.9,14.2-17.7c3.4-6.8,5.1-14.2,5.1-22
						c0-5.9-1.2-11.5-3.6-16.6C1112.3,414.1,1108.8,409.6,1104.4,405.9z"/>
					<path class="st1" d="M1247.1,472.5c-1,3.2-3.2,5.8-6.7,7.8l-11.4,6.6h69.4l-10.7-6.6c-2.5-1.5-4.4-3.2-5.5-4.9
						c-1.1-1.7-1.9-4.3-2.4-7.6c-0.5-3.8-0.8-9.2-0.8-16.2v-99.5c0-7,0.3-12.4,0.8-16.2c0.4-3.4,1.2-6,2.4-7.6
						c1.1-1.7,3-3.3,5.5-4.9l10.7-6.6h-68.7l10.7,6.6c2.5,1.6,4.4,3.2,5.5,4.9c1.1,1.7,1.9,4.3,2.4,7.6c0.5,3.8,0.8,9.2,0.8,16.2
						v30.2h-76.6v-30.2c0-7,0.3-12.4,0.8-16.2c0.4-3.4,1.2-6,2.4-7.6c1.1-1.7,3-3.3,5.5-4.9l10.7-6.6h-69.3l11.4,6.6
						c3.5,2,5.7,4.6,6.7,7.8c0.8,2.5,1.8,8.2,1.8,20.9v99.5c0,6.9-0.3,12.3-0.8,16c-0.5,3.4-1.3,6-2.5,7.9c-1.2,1.8-3,3.4-5.2,4.8
						l-10.8,6.6h68.9l-10.7-6.6c-2.5-1.5-4.4-3.2-5.5-4.9c-1.1-1.7-1.9-4.3-2.4-7.6c-0.5-3.8-0.8-9.2-0.8-16.2v-43.1h76.6v43.1
						C1248.9,464.3,1247.9,470,1247.1,472.5z"/>
				</g>
			</g>
		</g>
	</g>
</g>
</svg>
